# xmcd
#
# Track frame offsets: 
#        150
#        16273
#        38495
#        49106
#        67564
#        82524
#        97910
#        111572
#        126129
#        143086
#        159899
#        173369
#        188046
#        202042
#        215927
#        236707
#        248040
#        260038
#        270364
#        286439
#
# Disc length: 3960 seconds
#
# Revision: 0
# Processed by: cddbd v1.5.2PL0 Copyright (c) Steve Scherf et al.
# Submitted via: ExactAudioCopyFreeDBPlugin 1.0
#
DISCID=090f7614
DTITLE=Various Artist - Got Slide Guitar?
DYEAR=2013
DGENRE=Blues
TTITLE0=Lawdy Mama
TTITLE1=Poor Boy
TTITLE2=Jesus in Baton Rouge
TTITLE3=Fatherless Boy
TTITLE4=Mean Old Frisco
TTITLE5=World Train
TTITLE6=Girl From the North Country
TTITLE7=Memphis High
TTITLE8=Little Playmate
TTITLE9=Really Ruined It
TTITLE10=Only Gold Stays
TTITLE11=Blow Your Little House Down
TTITLE12=Sweet Home Chicago
TTITLE13=Mississippi River Stomp
TTITLE14=Thank You Jesus
TTITLE15=Trouble In Mind
TTITLE16=Went to See the Lord
TTITLE17=Louise Louise Blues
TTITLE18=Well Trained Girl
TTITLE19=Leaning on the Everlasting Arms
EXTD=
EXTT0=
EXTT1=
EXTT2=
EXTT3=
EXTT4=
EXTT5=
EXTT6=
EXTT7=
EXTT8=
EXTT9=
EXTT10=
EXTT11=
EXTT12=
EXTT13=
EXTT14=
EXTT15=
EXTT16=
EXTT17=
EXTT18=
EXTT19=
PLAYORDER=
